name D:\school\WTK\thesis\model\3dpredictsim\Results\batch_windlass\Pog_s1_tmt_bCst_d05_k1000_WL30_ig24_pas.mot
datacolumns 128
datarows 4
range 1.61831829 1.65068465
endheader
time	pelvis_tilt	pelvis_list	pelvis_rotation	pelvis_tx	pelvis_ty	pelvis_tz	hip_flexion_l	hip_adduction_l	hip_rotation_l	hip_flexion_r	hip_adduction_r	hip_rotation_r	knee_angle_l	knee_angle_r	ankle_angle_l	ankle_angle_r	subtalar_angle_l	subtalar_angle_r	tmt_angle_l	tmt_angle_r	mtp_angle_l	mtp_angle_r	lumbar_extension	lumbar_bending	lumbar_rotation	arm_flex_l	arm_add_l	arm_rot_l	arm_flex_r	arm_add_r	arm_rot_r	elbow_flex_l	elbow_flex_r	pro_sup_l	pro_sup_r	glut_med1_l/activation	glut_med2_l/activation	glut_med3_l/activation	glut_min1_l/activation	glut_min2_l/activation	glut_min3_l/activation	semimem_l/activation	semiten_l/activation	bifemlh_l/activation	bifemsh_l/activation	sar_l/activation	add_long_l/activation	add_brev_l/activation	add_mag1_l/activation	add_mag2_l/activation	add_mag3_l/activation	tfl_l/activation	pect_l/activation	grac_l/activation	glut_max1_l/activation	glut_max2_l/activation	glut_max3_l/activation	iliacus_l/activation	psoas_l/activation	quad_fem_l/activation	gem_l/activation	peri_l/activation	rect_fem_l/activation	vas_med_l/activation	vas_int_l/activation	vas_lat_l/activation	med_gas_l/activation	lat_gas_l/activation	soleus_l/activation	tib_post_l/activation	flex_dig_l/activation	flex_hal_l/activation	tib_ant_l/activation	per_brev_l/activation	per_long_l/activation	per_tert_l/activation	ext_dig_l/activation	ext_hal_l/activation	ercspn_l/activation	intobl_l/activation	extobl_l/activation	glut_med1_r/activation	glut_med2_r/activation	glut_med3_r/activation	glut_min1_r/activation	glut_min2_r/activation	glut_min3_r/activation	semimem_r/activation	semiten_r/activation	bifemlh_r/activation	bifemsh_r/activation	sar_r/activation	add_long_r/activation	add_brev_r/activation	add_mag1_r/activation	add_mag2_r/activation	add_mag3_r/activation	tfl_r/activation	pect_r/activation	grac_r/activation	glut_max1_r/activation	glut_max2_r/activation	glut_max3_r/activation	iliacus_r/activation	psoas_r/activation	quad_fem_r/activation	gem_r/activation	peri_r/activation	rect_fem_r/activation	vas_med_r/activation	vas_int_r/activation	vas_lat_r/activation	med_gas_r/activation	lat_gas_r/activation	soleus_r/activation	tib_post_r/activation	flex_dig_r/activation	flex_hal_r/activation	tib_ant_r/activation	per_brev_r/activation	per_long_r/activation	per_tert_r/activation	ext_dig_r/activation	ext_hal_r/activation	ercspn_r/activation	intobl_r/activation	extobl_r/activation	
          1.61831829	         -2.92362201	          1.62468951	         -5.77371133	          2.02289786	          0.85830464	          0.00195614	         31.80396268	          1.98564698	         -4.13914349	        -18.24113089	         -1.52777329	          7.07877548	        -18.78281075	         -8.62463556	          2.25302968	          0.65316376	          1.38544480	         12.20564668	         -0.26610168	         -8.78822516	          0.82151446	         28.93450916	         -1.13616827	          0.13863503	          1.82252320	         -8.76680196	        -13.59225708	          8.17902160	          5.45435978	        -13.46587148	         16.18761977	         16.69563124	         33.90205645	         86.51662706	         86.51662706	          0.05000442	          0.05000115	          0.05899008	          0.05000067	          0.05000086	          0.05000277	          0.05000231	          0.05899069	          0.17242637	          0.05172671	          0.05000256	          0.09574792	          0.13925230	          0.16067450	          0.17066843	          0.13514803	          0.05003595	          0.05004941	          0.05899155	          0.05899052	          0.11687077	          0.10379943	          0.06189987	          0.06415531	          0.22536125	          0.05000066	          0.05000100	          0.05809538	          0.11461752	          0.12093157	          0.09773889	          0.05899124	          0.05899011	          0.05205378	          0.05000024	          0.05899130	          0.05899120	          0.47270871	          0.32219314	          0.18198222	          0.17578797	          0.52699563	          0.13418816	          0.05664923	          0.10660168	          0.11400507	          0.26166826	          0.08692816	          0.05000238	          0.28766282	          0.18984563	          0.09152105	          0.05000785	          0.05000081	          0.05000067	          0.07045519	          0.08565061	          0.12035955	          0.05001962	          0.05000402	          0.05001232	          0.05001010	          0.28327330	          0.05049172	          0.05000418	          0.05003720	          0.05002389	          0.05001852	          0.33175901	          0.56214365	          0.05000351	          0.05001333	          0.05000118	          0.22164879	          0.10242134	          0.14068883	          0.06103125	          0.28817246	          0.37716066	          0.22655805	          0.22093021	          0.21725885	          0.28695698	          0.05000003	          0.12306209	          0.18904304	          0.05000018	          0.05000004	          0.05000018	          0.05000002	          0.05000047	          0.05000009	
          1.62910708	         -2.91249191	          1.70458069	         -6.01617103	          2.03947311	          0.85731066	          0.00175052	         31.22981427	          2.36770942	         -3.93437399	        -18.03256767	         -1.81524974	          6.90511176	        -18.43520227	        -10.60139755	          1.89579884	         -0.38371210	          0.84654088	         13.09111176	         -0.33036021	         -9.28968329	          1.00575091	         29.89427739	         -0.91937480	         -0.10226182	          1.89439603	         -9.84885287	        -13.58514203	          7.93268530	          5.21663041	        -13.49364651	         16.50682463	         16.64143560	         34.89339753	         86.51662706	         86.51662706	          0.05891818	          0.05317922	          0.05000021	          0.05899096	          0.05899080	          0.05002166	          0.05000048	          0.05000026	          0.17145950	          0.05000014	          0.05000147	          0.09687752	          0.23182884	          0.13618810	          0.14471351	          0.14872336	          0.05000034	          0.08208055	          0.05000157	          0.05000048	          0.14982228	          0.17720901	          0.05899119	          0.05437946	          0.28764463	          0.15854614	          0.12477675	          0.06958651	          0.20390421	          0.19923510	          0.17017250	          0.05000061	          0.05000033	          0.05000022	          0.05000014	          0.05000087	          0.05000112	          0.63631946	          0.27308843	          0.15424672	          0.51319678	          0.59667126	          0.28428838	          0.05000011	          0.09035473	          0.09662978	          0.22178858	          0.07367964	          0.05000011	          0.24382103	          0.16091173	          0.07757258	          0.05000192	          0.05000031	          0.05000023	          0.05971729	          0.07259791	          0.16932694	          0.20174289	          0.05475133	          0.05000466	          0.05000057	          0.24010105	          0.10776401	          0.05001275	          0.05000172	          0.05000103	          0.05000079	          0.28119646	          0.51678630	          0.05000027	          0.05000078	          0.05000052	          0.18786776	          0.08681250	          0.11924784	          0.15015087	          0.24425264	          0.31967832	          0.19202876	          0.18725875	          0.18414716	          0.24322261	          0.05000016	          0.10430659	          0.16023159	          0.05000047	          0.05000036	          0.05000047	          0.05090403	          0.05000074	          0.05000042	
          1.63989587	         -2.89627899	          1.79080389	         -6.23144633	          2.05630222	          0.85615210	          0.00155261	         30.52918246	          2.73089993	         -3.65410919	        -17.72912320	         -2.09236758	          6.71603283	        -18.68223260	        -12.76549398	          1.56216080	         -1.49292352	          0.28519276	         13.92512818	         -0.42983374	         -9.67340591	          1.24943199	         30.41791616	         -0.68356791	         -0.35802792	          1.95629284	        -10.92806841	        -13.58518543	          7.75091692	          4.90006149	        -13.53176901	         16.75777423	         16.57705628	         35.89059646	         86.51662706	         86.51662706	          0.05000009	          0.05000024	          0.17603174	          0.05000035	          0.05000030	          0.05000033	          0.05000100	          0.05001332	          0.14532791	          0.05000059	          0.05000171	          0.08211279	          0.19649656	          0.30299158	          0.26456668	          0.17712987	          0.05000080	          0.06958058	          0.12327860	          0.14439274	          0.16627813	          0.15020939	          0.05000073	          0.05000074	          0.28804103	          0.13438255	          0.10575990	          0.05898602	          0.24626819	          0.24799745	          0.21147491	          0.05000040	          0.05000063	          0.05000005	          0.05000006	          0.05001014	          0.05000100	          0.54707033	          0.23772968	          0.13702474	          0.49674735	          0.54398251	          0.24096074	          0.05000002	          0.07658395	          0.08190262	          0.18798634	          0.06245032	          0.05067518	          0.20666096	          0.13638759	          0.06574999	          0.05001118	          0.05000088	          0.05000456	          0.05061594	          0.06153377	          0.21816785	          0.35084634	          0.16838599	          0.08532112	          0.13492902	          0.20350823	          0.09134071	          0.05000276	          0.05013251	          0.05892578	          0.05899096	          0.23833990	          0.46742617	          0.05899051	          0.05898781	          0.05000101	          0.15923521	          0.13483893	          0.13484269	          0.12727094	          0.20702655	          0.27095676	          0.16276202	          0.15871906	          0.15608188	          0.20615368	          0.13091075	          0.08840973	          0.17726466	          0.05000057	          0.14667513	          0.08343703	          0.06762564	          0.05899078	          0.05899082	
          1.65068465	         -2.87689385	          1.88503819	         -6.41523368	          2.07322245	          0.85485509	          0.00136782	         29.65619578	          3.05664747	         -3.33065230	        -17.31150189	         -2.35346696	          6.52232056	        -19.16023001	        -15.14367566	          1.52921048	         -2.60774332	         -0.32037946	         14.67626158	         -0.69178914	         -9.77431142	          1.40625268	         30.11345610	         -0.44262671	         -0.62799580	          2.00618523	        -11.96502649	        -13.59645915	          7.66602296	          4.52927542	        -13.57610908	         16.94444301	         16.47397945	         36.88361767	         86.51662706	         86.51662706	          0.29515363	          0.35216959	          0.48685506	          0.36846429	          0.28117402	          0.38579307	          0.07793309	          0.09729244	          0.12317919	          0.06958574	          0.05000140	          0.06959821	          0.16654898	          0.25681340	          0.22424490	          0.15889292	          0.05000056	          0.05898263	          0.10449093	          0.27523171	          0.22487684	          0.15244163	          0.05000080	          0.05000047	          0.24414143	          0.11390208	          0.26124383	          0.05000011	          0.26392461	          0.27996058	          0.23618150	          0.05000017	          0.05000038	          0.05004044	          0.05011629	          0.05000122	          0.05000357	          0.66655901	          0.20149778	          0.11614107	          0.42109822	          0.57763132	          0.35582897	          0.05817272	          0.08211217	          0.06942001	          0.20865654	          0.05293244	          0.05000006	          0.22734364	          0.11560118	          0.05572928	          0.05008450	          0.05000105	          0.05000056	          0.05000076	          0.05896699	          0.20265543	          0.29737488	          0.14272284	          0.07231818	          0.11436499	          0.25186386	          0.07742077	          0.05000205	          0.05000138	          0.05000088	          0.05000104	          0.20201546	          0.44402487	          0.05000015	          0.05000048	          0.05000017	          0.13496649	          0.11428845	          0.11429163	          0.10787387	          0.17547402	          0.22966076	          0.13795576	          0.13452910	          0.13229402	          0.17473449	          0.18443604	          0.13628390	          0.15025443	          0.19403466	          0.21443590	          0.08293596	          0.09716569	          0.05000012	          0.05000019	
